<svg xmlns="http://www.w3.org/2000/svg" id="Layer_1" version="1.1" viewBox="0 0 500 500">
  <defs>
    <style>
      .st0{fill:#315b4d}
    </style>
  </defs>
  <path d="m74.7 74.7-.03 1.6h1.16c26.41-.06 62.12-15.97 99.17-15.93 24.85.03 50.15 7.03 73.87 30.71l1.13.47 1.12-.47c23.72-23.68 49.03-30.69 73.87-30.71 37.06-.03 72.76 15.87 99.17 15.93h1.16l-.03-1.6-1.59-.03v1.17c.05 26.4 15.96 62.12 15.92 99.16-.02 24.85-7.03 50.15-30.71 73.87l-.47 1.13.47 1.12c23.68 23.72 30.69 49.02 30.71 73.87.03 37.06-15.87 72.76-15.93 99.16v1.18l1.59-.03.03-1.59h-1.16c-26.41.05-62.12 15.96-99.17 15.92-24.84-.02-50.15-7.02-73.87-30.71l-1.12-.47-1.13.47c-23.72 23.68-49.02 30.69-73.87 30.71-37.06.04-72.76-15.87-99.17-15.93h-1.16l.03 1.59 1.59.03v-1.17c-.05-26.41-15.96-62.12-15.92-99.17.02-24.84 7.03-50.15 30.71-73.87l.47-1.12-.47-1.13c-23.68-23.72-30.69-49.02-30.71-73.87-.03-37.05 15.87-72.76 15.93-99.16v-1.17l-1.59.03-.03 1.6.03-1.6-1.59.03v1.11c.08 25.24-15.89 61.3-15.92 99.16-.03 25.44 7.32 51.84 31.64 76.12l1.13-1.12-1.13-1.13c-24.31 24.28-31.66 50.68-31.64 76.12.03 37.87 16 73.92 15.93 99.17v1.1l.45 1.15 1.15.47h1.11c25.25-.07 61.3 15.9 99.17 15.93 25.43.02 51.84-7.34 76.12-31.65l-1.12-1.13-1.13 1.13c24.29 24.31 50.68 31.66 76.12 31.64 37.87-.03 73.93-16 99.17-15.93h1.11l1.15-.46.46-1.15v-1.11c-.07-25.24 15.89-61.29 15.92-99.16.03-25.43-7.32-51.84-31.64-76.12l-1.13 1.13 1.13 1.12c24.31-24.28 31.66-50.67 31.64-76.12-.03-37.86-16-73.92-15.93-99.16v-1.11l-.45-1.15-1.15-.47h-1.11c-25.24.08-61.3-15.89-99.17-15.92-25.43-.03-51.83 7.33-76.12 31.65l1.13 1.12 1.12-1.12C226.84 64.52 200.44 57.16 175 57.18c-37.87.03-73.93 16-99.17 15.94l-1.11-.02-1.15.47-.46 1.15 1.59-.03" class="st0"/>
  <path d="m2.09 250 1.1 1.14c15.86-15.33 28.15-43.58 47.18-67.94 19.04-24.36 44.39-44.75 86.46-44.78l1.12-.47.47-1.12c.03-42.07 20.41-67.42 44.77-86.46 24.37-19.04 52.62-31.32 67.95-47.18L250 2.09l-1.14 1.1c15.33 15.86 43.58 28.15 67.95 47.18 24.36 19.04 44.75 44.4 44.77 86.46l.47 1.12 1.12.47c42.08.03 67.42 20.42 86.46 44.78s31.32 52.61 47.18 67.94l1.1-1.14-1.1-1.14c-15.86 15.33-28.15 43.58-47.18 67.95-19.04 24.36-44.39 44.75-86.46 44.77l-1.12.47-.47 1.12c-.03 42.08-20.41 67.43-44.77 86.46-24.37 19.04-52.62 31.32-67.95 47.18l1.14 1.1 1.14-1.1c-15.33-15.86-43.58-28.15-67.95-47.18-24.36-19.04-44.74-44.39-44.77-86.46l-.47-1.12-1.12-.47c-42.08-.03-67.42-20.41-86.46-44.77-19.04-24.37-31.32-52.62-47.18-67.95L2.09 250l1.1 1.14-1.1-1.14L1 251.14c15.14 14.53 27.6 42.86 46.87 67.62 19.27 24.76 45.79 46.03 88.97 46v-1.59h-1.59c-.03 43.18 21.23 69.7 45.99 88.97 24.76 19.28 53.09 31.73 67.62 46.88l1.14.49 1.14-.49c14.53-15.14 42.86-27.6 67.62-46.88 24.76-19.27 46.03-45.79 46-88.97h-1.6v1.59c43.19.03 69.7-21.24 88.97-46 19.28-24.76 31.73-53.09 46.88-67.62l.49-1.14-.49-1.14c-15.14-14.53-27.6-42.86-46.88-67.62-19.27-24.76-45.79-46.03-88.97-45.99v1.59h1.6c.03-43.18-21.24-69.7-46-88.97C294 28.6 265.67 16.14 251.14.99L250 .5l-1.14.49C234.33 16.14 206 28.6 181.24 47.87c-24.77 19.27-46.03 45.79-45.99 88.97h1.59v-1.59c-43.18-.03-69.7 21.23-88.97 45.99C28.6 206 16.14 234.33 1 248.86L.51 250l.49 1.14L2.09 250" class="st0"/>
  <path d="M218.29 169.61c.1-26.41 7.65-53.33 32.83-78.53L250 89.96l-1.13 1.12c25.18 25.21 32.73 52.12 32.83 78.53 0 .88.72 1.59 1.59 1.59s1.59-.72 1.59-1.59c-.07-27-7.97-55-33.77-80.76l-1.12-.47-1.13.47c-25.8 25.76-33.7 53.76-33.77 80.76 0 .88.71 1.59 1.59 1.59s1.59-.71 1.6-1.59M281.71 330.39c-.1 26.42-7.65 53.33-32.84 78.53l1.13 1.12 1.12-1.12c-25.18-25.21-32.73-52.11-32.83-78.53 0-.88-.72-1.59-1.59-1.59s-1.59.72-1.59 1.59c.07 27.01 7.97 55 33.77 80.77l1.13.47 1.12-.47c25.81-25.77 33.7-53.76 33.77-80.77 0-.88-.71-1.59-1.59-1.59s-1.59.71-1.59 1.59M169.61 281.71c-26.42-.1-53.33-7.65-78.53-32.83l-1.12 1.13 1.12 1.12c25.21-25.18 52.11-32.73 78.53-32.83.88 0 1.59-.72 1.59-1.59s-.72-1.59-1.59-1.59c-27.01.07-54.99 7.97-80.77 33.77l-.46 1.13.46 1.12c25.78 25.81 53.76 33.7 80.77 33.77.88 0 1.59-.71 1.59-1.59s-.71-1.59-1.59-1.59M330.39 218.29c26.42.1 53.33 7.65 78.53 32.84l1.12-1.12-1.12-1.13c-25.21 25.18-52.11 32.74-78.53 32.83-.88 0-1.59.72-1.59 1.59s.72 1.59 1.59 1.59c27.01-.07 55-7.97 80.77-33.77l.47-1.12-.47-1.13c-25.77-25.8-53.76-33.7-80.77-33.77-.88 0-1.59.71-1.59 1.59s.71 1.59 1.59 1.59" class="st0"/>
  <path d="M282.39 169.01c-19.04 19.15-33.25 44.53-33.23 81l.47 1.12 1.12.47c36.48.02 61.85-14.19 81-33.23v-2.25h-2.24c-18.76 18.6-43.12 32.29-78.76 32.31v1.59h1.59c.02-35.63 13.7-60 32.31-78.75v-2.25h-2.25" class="st0"/>
  <path d="M219.1 330.99c19.04-19.15 33.25-44.52 33.23-80.99l-.47-1.13-1.13-.47c-36.47-.02-61.84 14.19-80.99 33.24v2.24h2.24c18.76-18.6 43.12-32.29 78.75-32.31v-1.59h-1.59c-.02 35.63-13.7 59.99-32.31 78.75v2.25h2.25M170.73 215.58c-18.6-18.76-32.29-43.12-32.31-78.75h-1.59v1.59c35.63.02 59.99 13.7 78.75 32.31h2.25v-2.25c-19.15-19.05-44.52-33.25-80.99-33.23l-1.13.46-.46 1.13c-.03 36.47 14.18 61.85 33.23 80.99h2.25v-2.24M329.27 284.42c18.6 18.76 32.29 43.13 32.31 78.75h1.59v-1.59c-35.63-.02-59.99-13.7-78.75-32.31h-2.25v2.25c19.15 19.04 44.52 33.25 80.99 33.23l1.13-.47.47-1.13c.02-36.47-14.19-61.84-33.23-80.99h-2.25v2.24" class="st0"/>
  <path d="M215.58 329.27c-18.76 18.6-43.12 32.29-78.75 32.31v1.59h1.59c.02-35.62 13.7-59.99 32.31-78.75v-2.25h-2.25c-19.05 19.16-33.26 44.53-33.23 81l.46 1.13 1.13.47c36.47.02 61.84-14.19 80.99-33.23v-2.25h-2.24M284.42 170.73c18.76-18.61 43.12-32.3 78.75-32.31v-1.59h-1.59c-.02 35.63-13.7 59.99-32.31 78.75v2.25h2.25c19.04-19.14 33.25-44.52 33.23-80.99l-.47-1.13-1.13-.46c-36.47-.02-61.84 14.18-80.99 33.23v2.25h2.24M169.75 218.36c19.15 19.04 44.52 33.25 80.99 33.23l1.13-.47.47-1.12c.02-36.47-14.19-61.85-33.23-81h-2.25v2.25c18.59 18.75 32.28 43.12 32.3 78.75h1.59v-1.59c-35.63-.02-59.99-13.7-78.75-32.31h-2.25v2.25" class="st0"/>
  <path d="M331.74 281.65c-19.15-19.05-44.52-33.26-81-33.24l-1.12.47-.47 1.13c-.02 36.47 14.19 61.84 33.23 80.99h2.25v-2.24c-18.6-18.76-32.29-43.12-32.31-78.75h-1.6v1.59c35.64.02 60 13.7 78.76 32.31h2.25v-2.25" class="st0"/>
</svg>
